Title: 'I Knew Bin Laden' 

Aljazeera Documentary programme about the worlds most wanted man ,now dead, 
Osama Bin Laden.




File Info:__________________________________________________________________

Format                           : MPEG-4
File size                        : 632 MiB
Duration                         : 45mn 17s
Overall bit rate                 : 1 950 Kbps

Video

Format                           : AVC
Format/Info                      : Advanced Video Codec
Duration                         : 45mn 17s
Bit rate mode                    : Variable
Bit rate                         : 1 804 Kbps
Maximum bit rate                 : 5 773 Kbps
Width                            : 1 280 pixels
Height                           : 720 pixels
Display aspect ratio             : 16:9
Frame rate mode                  : Constant
Frame rate                       : 25.000 fps
Scan type                        : Progressive
Bits/(Pixel*Frame)               : 0.078
Stream size                      : 584 MiB (92%)

Audio
Format                           : AAC
Format/Info                      : Advanced Audio Codec
Bit rate mode                    : Variable
Bit rate                         : 144 Kbps
Maximum bit rate                 : 214 Kbps
Channel(s)                       : 2 channels
Channel positions                : Front: L R
Sampling rate                    : 44.1 KHz
Compression mode                 : Lossy
Stream size                      : 46.0 MiB (7%)

___________________________________________________________________________________